<?xml version="1.0" encoding="utf-8"?>
<!-- Generator: Adobe Illustrator 21.0.0, SVG Export Plug-In . SVG Version: 6.00 Build 0)  -->
<svg version="1.1" id="Capa_1" xmlns="http://www.w3.org/2000/svg" xmlns:xlink="http://www.w3.org/1999/xlink" x="0px" y="0px"
	 viewBox="0 0 261.8 150" style="enable-background:new 0 0 261.8 150;" xml:space="preserve">
<style type="text/css">
	.st0{fill:#FFFFFF;}
	.st1{opacity:0.8;fill:url(#SVGID_1_);}
	.st2{opacity:0.8;fill:none;}
	.st3{opacity:0.75;fill:url(#SVGID_2_);}
	.st4{opacity:0.9;fill:url(#SVGID_3_);}
	.st5{opacity:0.75;fill:url(#SVGID_4_);}
	.st6{opacity:0.75;fill:url(#SVGID_5_);}
	.st7{opacity:0.75;fill:url(#SVGID_6_);}
	.st8{opacity:0.9;fill:url(#SVGID_7_);}
	.st9{opacity:0.75;fill:url(#SVGID_8_);}
	.st10{opacity:0.75;fill:url(#SVGID_9_);}
</style>
<g>
	<g>
		<g>
			<path class="st0" d="M128.7,95.2c0,0.9-0.7,1.6-1.8,1.6c-1.5,0-1.9-0.9-2.2-2.7c-1.5,1.7-3.5,2.8-6.7,2.8c-8,0-11-5.1-11-11.1
				c0-7.1,4.8-11.1,11.8-11.1c5.7,0,8.7,3.2,8.7,5.1c0,1.7-1.3,2.1-2.4,2.1c-2.5,0-1.6-3.3-6.6-3.3c-3.5,0-6.3,2.2-6.3,7.5
				c0,4.2,2.2,7.1,6.4,7.1c2.7,0,5.1-1.7,5.4-4.3h-3.4c-1.1,0-2.3-0.4-2.3-1.9c0-1.2,0.7-1.9,2-1.9h6.3c1.5,0,2.1,0.7,2.1,2V95.2z"
				/>
			<path class="st0" d="M133,82.7c0-1.3,0.9-2,2.1-2s2.1,0.7,2.1,2v1.6h0.1c0.5-1.8,1.6-3.6,3.8-3.6c1.4,0,2.5,0.9,2.5,2.1
				c0,1.6-1.1,2.1-2.3,2.1h-0.8c-1.9,0-2.9,1.2-2.9,4.8v5c0,1.1-0.5,2.1-2.3,2.1c-1.8,0-2.3-1-2.3-2.1V82.7z"/>
			<path class="st0" d="M160.1,92.3c0,1.8,0.5,2.2,0.5,2.9c0,1-1,1.6-2.1,1.6c-2,0-2.6-1.2-2.7-2.5c-1.8,1.9-3.9,2.5-6.3,2.5
				c-2.6,0-5.2-1.7-5.2-4.4c0-3.6,2.9-4.6,6.4-4.9l2.8-0.3c1.1-0.1,2-0.4,2-1.6s-1.3-1.8-2.9-1.8c-3.4,0-3.5,2.3-5.3,2.3
				c-1.2,0-1.9-0.8-1.9-1.6c0-1.7,2.6-3.9,7.3-3.9c4.4,0,7.4,1.3,7.4,4.4V92.3z M155.6,89.2c-0.5,0.4-1.4,0.6-2,0.7l-1.7,0.2
				c-1.9,0.3-2.9,0.8-2.9,2.1c0,1,1,1.8,2.5,1.8c2.5,0,4-1.5,4-3.1V89.2z"/>
			<path class="st0" d="M165.5,83.9h-1c-1.3,0-1.8-0.5-1.8-1.4c0-0.9,0.5-1.4,1.8-1.4h1V79c0-2.7,2.4-4.1,5-4.1c1.7,0,3,0.6,3,2.1
				c0,0.8-0.7,1.5-1.5,1.5c-0.3,0-0.7-0.1-1-0.1c-0.7,0-1,0.4-1,1v1.9h1.4c1.3,0,2.1,0.4,2.1,1.4c0,1-0.7,1.4-2.1,1.4h-1.4v10.8
				c0,1.4-0.9,2.1-2.3,2.1c-1.4,0-2.3-0.7-2.3-2.1V83.9z"/>
			<path class="st0" d="M179.6,89.6c0,2.3,1.6,3.9,4.2,3.9c3.4,0,3.4-2.1,5.3-2.1c1.1,0,1.9,0.9,1.9,1.7c0,2.6-4.4,3.8-7.2,3.8
				c-6.4,0-8.8-4.1-8.8-7.8c0-5,3.2-8.3,8.7-8.3c5.3,0,8.3,3.5,8.3,7c0,1.5-0.5,1.9-2,1.9H179.6z M187.6,87.1
				c-0.3-2-1.8-3.4-3.9-3.4c-2.3,0-3.7,1.3-4.2,3.4H187.6z"/>
			<path class="st0" d="M194.9,82.9c0-1.3,0.6-2.1,2.1-2.1s2.1,0.9,2.1,2.1v0.6h0.1c1.3-1.6,2.9-2.7,5.6-2.7c2.8,0,5.8,1.3,5.8,5.6
				v8.3c0,1.1-0.5,2.1-2.3,2.1c-1.8,0-2.3-1-2.3-2.1v-7.5c0-1.7-0.9-3-2.9-3c-1.6,0-3.5,1.2-3.5,3.4v7.1c0,1.1-0.5,2.1-2.3,2.1
				c-1.8,0-2.3-1-2.3-2.1V82.9z"/>
			<path class="st0" d="M221.8,80.7c5.5,0,8.5,3.5,8.5,8c0,4.3-2.2,8.1-8.5,8.1c-6.2,0-8.5-3.8-8.5-8.1
				C213.3,84.3,216.3,80.7,221.8,80.7z M221.8,93.7c2.7,0,3.9-2.3,3.9-4.9c0-2.8-1.2-4.9-3.9-4.9s-3.9,2.1-3.9,4.9
				C217.9,91.4,219.1,93.7,221.8,93.7z"/>
		</g>
	</g>
</g>
<g>
	<g>
		<g>
			
				<radialGradient id="SVGID_1_" cx="-288.7137" cy="250.8538" r="60.2503" gradientTransform="matrix(0.658 -0.4793 0.2137 0.369 214.6898 -162.8662)" gradientUnits="userSpaceOnUse">
				<stop  offset="0" style="stop-color:#FCFEFF"/>
				<stop  offset="9.024870e-02" style="stop-color:#FDFEFF;stop-opacity:0.9098"/>
				<stop  offset="1" style="stop-color:#FFFFFF;stop-opacity:0"/>
			</radialGradient>
			<rect x="34.8" y="11.1" class="st1" width="86.9" height="113.9"/>
			<rect x="0.1" y="11.1" class="st2" width="78.2" height="113.9"/>
		</g>
	</g>
	<g>
		<g>
			<linearGradient id="SVGID_2_" gradientUnits="userSpaceOnUse" x1="58.7254" y1="95.0025" x2="95.0709" y2="95.0025">
				<stop  offset="0" style="stop-color:#8DCECB"/>
				<stop  offset="0.1903" style="stop-color:#88C9C7"/>
				<stop  offset="0.3917" style="stop-color:#78B9BB"/>
				<stop  offset="0.5984" style="stop-color:#5DA1A8"/>
				<stop  offset="0.8072" style="stop-color:#39838F"/>
				<stop  offset="1" style="stop-color:#066474"/>
			</linearGradient>
			<path class="st3" d="M58.7,121.9c0,0,35.4-8.6,20.1-53.8c7.9,6.2,15,15.3,16.1,24.1c1,8.7-4.3,14.8-8,18.2
				C79.9,117,68.1,122.2,58.7,121.9z"/>
			<linearGradient id="SVGID_3_" gradientUnits="userSpaceOnUse" x1="28.0194" y1="54.7783" x2="92.5977" y2="54.7783">
				<stop  offset="0" style="stop-color:#066474"/>
				<stop  offset="3.661275e-02" style="stop-color:#357276"/>
				<stop  offset="0.1114" style="stop-color:#6A8C74"/>
				<stop  offset="0.1894" style="stop-color:#93A56C"/>
				<stop  offset="0.2698" style="stop-color:#B4BB62"/>
				<stop  offset="0.3532" style="stop-color:#CFCD56"/>
				<stop  offset="0.4409" style="stop-color:#E1DB49"/>
				<stop  offset="0.5358" style="stop-color:#ECE340"/>
				<stop  offset="0.651" style="stop-color:#F0E63D"/>
				<stop  offset="0.7203" style="stop-color:#F0E641"/>
				<stop  offset="0.7701" style="stop-color:#F1E74E"/>
				<stop  offset="0.8138" style="stop-color:#F2E961"/>
				<stop  offset="0.854" style="stop-color:#F4EC7A"/>
				<stop  offset="0.8918" style="stop-color:#F6EF97"/>
				<stop  offset="0.9278" style="stop-color:#F8F3B6"/>
				<stop  offset="0.9624" style="stop-color:#FCF9D8"/>
				<stop  offset="0.9951" style="stop-color:#FFFEFA"/>
				<stop  offset="1" style="stop-color:#FFFFFF"/>
			</linearGradient>
			<path class="st4" d="M76.3,60.1l16.3-32.9c0,0-56.8,14.1-64.6,55.1C38.9,72.2,55,60.3,76.3,60.1z"/>
			<linearGradient id="SVGID_4_" gradientUnits="userSpaceOnUse" x1="71.9846" y1="98.5141" x2="71.9846" y2="68.0862">
				<stop  offset="0" style="stop-color:#EF877B"/>
				<stop  offset="0.2263" style="stop-color:#EF8A7E"/>
				<stop  offset="0.3893" style="stop-color:#F09285"/>
				<stop  offset="0.5324" style="stop-color:#F2A093"/>
				<stop  offset="0.6641" style="stop-color:#F5B3A7"/>
				<stop  offset="0.7879" style="stop-color:#F8CBC1"/>
				<stop  offset="0.9042" style="stop-color:#FCE6E0"/>
				<stop  offset="1" style="stop-color:#FFFFFF"/>
			</linearGradient>
			<path class="st5" d="M48.9,86.2c0,0,16.3-17.3,30-18.1C90.5,77.3,97,89.3,94.6,98.5C86.8,92.1,71.4,85.7,48.9,86.2z"/>
			<linearGradient id="SVGID_5_" gradientUnits="userSpaceOnUse" x1="27.4028" y1="91.4166" x2="90.5263" y2="91.4166">
				<stop  offset="0" style="stop-color:#066474"/>
				<stop  offset="3.947675e-02" style="stop-color:#27687B"/>
				<stop  offset="0.1797" style="stop-color:#5A728F"/>
				<stop  offset="0.3254" style="stop-color:#7E799E"/>
				<stop  offset="0.4758" style="stop-color:#977DAA"/>
				<stop  offset="0.633" style="stop-color:#A880B2"/>
				<stop  offset="0.8013" style="stop-color:#B381B6"/>
				<stop  offset="1" style="stop-color:#B682B8"/>
			</linearGradient>
			<path class="st6" d="M90.5,106.6c0,0-56.4,18.6-52.8-45.6c0,0-24.2,30,1.6,53.2c14.7,13.2,31.6,7.1,41.3,1.1
				C87,111.3,90.5,106.6,90.5,106.6z"/>
		</g>
		<g>
			<linearGradient id="SVGID_6_" gradientUnits="userSpaceOnUse" x1="58.7254" y1="95.0025" x2="95.0709" y2="95.0025">
				<stop  offset="0" style="stop-color:#8DCECB"/>
				<stop  offset="0.1903" style="stop-color:#88C9C7"/>
				<stop  offset="0.3917" style="stop-color:#78B9BB"/>
				<stop  offset="0.5984" style="stop-color:#5DA1A8"/>
				<stop  offset="0.8072" style="stop-color:#39838F"/>
				<stop  offset="1" style="stop-color:#066474"/>
			</linearGradient>
			<path class="st7" d="M58.7,121.9c0,0,35.4-8.6,20.1-53.8c7.9,6.2,15,15.3,16.1,24.1c1,8.7-4.3,14.8-8,18.2
				C79.9,117,68.1,122.2,58.7,121.9z"/>
			<linearGradient id="SVGID_7_" gradientUnits="userSpaceOnUse" x1="28.0194" y1="54.7783" x2="92.5977" y2="54.7783">
				<stop  offset="0" style="stop-color:#066474"/>
				<stop  offset="3.466378e-02" style="stop-color:#357276"/>
				<stop  offset="0.1055" style="stop-color:#6A8C74"/>
				<stop  offset="0.1794" style="stop-color:#93A56C"/>
				<stop  offset="0.2555" style="stop-color:#B4BB62"/>
				<stop  offset="0.3344" style="stop-color:#CFCD56"/>
				<stop  offset="0.4175" style="stop-color:#E1DB49"/>
				<stop  offset="0.5073" style="stop-color:#ECE340"/>
				<stop  offset="0.6163" style="stop-color:#F0E63D"/>
				<stop  offset="0.7372" style="stop-color:#F5ED87"/>
				<stop  offset="1" style="stop-color:#FFFFFF"/>
			</linearGradient>
			<path class="st8" d="M76.3,60.1l16.3-32.9c0,0-56.8,14.1-64.6,55.1C38.9,72.2,55,60.3,76.3,60.1z"/>
			<linearGradient id="SVGID_8_" gradientUnits="userSpaceOnUse" x1="71.9846" y1="98.5141" x2="71.9846" y2="68.0862">
				<stop  offset="0" style="stop-color:#EF877B"/>
				<stop  offset="0.2263" style="stop-color:#EF8A7E"/>
				<stop  offset="0.3893" style="stop-color:#F09285"/>
				<stop  offset="0.5324" style="stop-color:#F2A093"/>
				<stop  offset="0.6641" style="stop-color:#F5B3A7"/>
				<stop  offset="0.7879" style="stop-color:#F8CBC1"/>
				<stop  offset="0.9042" style="stop-color:#FCE6E0"/>
				<stop  offset="1" style="stop-color:#FFFFFF"/>
			</linearGradient>
			<path class="st9" d="M48.9,86.2c0,0,16.3-17.3,30-18.1C90.5,77.3,97,89.3,94.6,98.5C86.8,92.1,71.4,85.7,48.9,86.2z"/>
			<linearGradient id="SVGID_9_" gradientUnits="userSpaceOnUse" x1="27.4028" y1="91.4166" x2="90.5263" y2="91.4166">
				<stop  offset="0" style="stop-color:#066474"/>
				<stop  offset="3.947675e-02" style="stop-color:#27687B"/>
				<stop  offset="0.1797" style="stop-color:#5A728F"/>
				<stop  offset="0.3254" style="stop-color:#7E799E"/>
				<stop  offset="0.4758" style="stop-color:#977DAA"/>
				<stop  offset="0.633" style="stop-color:#A880B2"/>
				<stop  offset="0.8013" style="stop-color:#B381B6"/>
				<stop  offset="1" style="stop-color:#B682B8"/>
			</linearGradient>
			<path class="st10" d="M90.5,106.6c0,0-56.4,18.6-52.8-45.6c0,0-24.2,30,1.6,53.2c14.7,13.2,31.6,7.1,41.3,1.1
				C87,111.3,90.5,106.6,90.5,106.6z"/>
		</g>
	</g>
</g>
</svg>
