<?xml version="1.0" encoding="utf-8"?>
<!-- Generator: Adobe Illustrator 21.0.0, SVG Export Plug-In . SVG Version: 6.00 Build 0)  -->
<svg version="1.1" id="Capa_1" xmlns="http://www.w3.org/2000/svg" xmlns:xlink="http://www.w3.org/1999/xlink" x="0px" y="0px"
	 viewBox="0 0 197.2 109.6" style="enable-background:new 0 0 197.2 109.6;" xml:space="preserve">
<style type="text/css">
	.st0{fill:#FFFFFF;}
	.st1{fill:#EFE640;}
	.st2{opacity:0.8;fill:url(#SVGID_1_);}
	.st3{opacity:0.8;fill:none;}
	.st4{opacity:0.75;fill:url(#SVGID_2_);}
	.st5{opacity:0.9;fill:url(#SVGID_3_);}
	.st6{opacity:0.75;fill:url(#SVGID_4_);}
	.st7{opacity:0.75;fill:url(#SVGID_5_);}
	.st8{opacity:0.75;fill:url(#SVGID_6_);}
	.st9{opacity:0.9;fill:url(#SVGID_7_);}
	.st10{opacity:0.75;fill:url(#SVGID_8_);}
	.st11{opacity:0.75;fill:url(#SVGID_9_);}
</style>
<g>
	<g>
		<g>
			<path class="st0" d="M101.1,60.1c0,0.6-0.5,1.1-1.2,1.1c-1,0-1.3-0.6-1.5-1.9c-1,1.2-2.5,2-4.7,2c-5.6,0-7.7-3.6-7.7-7.7
				c0-5,3.3-7.7,8.2-7.7c4,0,6.1,2.2,6.1,3.6c0,1.2-0.9,1.5-1.7,1.5c-1.8,0-1.1-2.3-4.6-2.3c-2.5,0-4.4,1.5-4.4,5.3
				c0,2.9,1.5,4.9,4.5,4.9c1.9,0,3.6-1.2,3.7-3h-2.3c-0.8,0-1.6-0.3-1.6-1.3c0-0.8,0.5-1.3,1.4-1.3h4.4c1.1,0,1.5,0.5,1.5,1.4V60.1z
				"/>
			<path class="st0" d="M104.1,51.3c0-0.9,0.6-1.4,1.4-1.4c0.8,0,1.4,0.5,1.4,1.4v1.1h0c0.4-1.3,1.1-2.5,2.7-2.5
				c1,0,1.8,0.6,1.8,1.5c0,1.1-0.8,1.5-1.6,1.5h-0.6c-1.3,0-2,0.8-2,3.3v3.5c0,0.8-0.4,1.5-1.6,1.5c-1.2,0-1.6-0.7-1.6-1.5V51.3z"/>
			<path class="st0" d="M123.1,58c0,1.3,0.3,1.5,0.3,2c0,0.7-0.7,1.1-1.4,1.1c-1.4,0-1.8-0.8-1.9-1.7c-1.2,1.3-2.7,1.7-4.4,1.7
				c-1.8,0-3.6-1.2-3.6-3.1c0-2.5,2-3.2,4.5-3.4l2-0.2c0.8-0.1,1.4-0.2,1.4-1.1s-0.9-1.2-2-1.2c-2.4,0-2.4,1.6-3.7,1.6
				c-0.8,0-1.4-0.5-1.4-1.1c0-1.2,1.8-2.7,5.1-2.7c3.1,0,5.2,0.9,5.2,3.1V58z M119.9,55.9c-0.4,0.3-1,0.4-1.4,0.5l-1.2,0.2
				c-1.3,0.2-2.1,0.6-2.1,1.5c0,0.7,0.7,1.2,1.8,1.2c1.8,0,2.8-1.1,2.8-2.2V55.9z"/>
			<path class="st0" d="M126.9,52.2h-0.7c-0.9,0-1.3-0.3-1.3-1s0.4-1,1.3-1h0.7v-1.5c0-1.9,1.7-2.9,3.5-2.9c1.2,0,2.1,0.4,2.1,1.4
				c0,0.6-0.5,1-1,1c-0.2,0-0.5-0.1-0.7-0.1c-0.5,0-0.7,0.3-0.7,0.7v1.3h1c0.9,0,1.4,0.3,1.4,1c0,0.7-0.5,1-1.4,1h-1v7.5
				c0,1-0.6,1.5-1.6,1.5c-1,0-1.6-0.5-1.6-1.5V52.2z"/>
			<path class="st0" d="M136.7,56.1c0,1.6,1.1,2.7,3,2.7c2.4,0,2.4-1.5,3.7-1.5c0.8,0,1.3,0.6,1.3,1.2c0,1.8-3.1,2.6-5,2.6
				c-4.5,0-6.2-2.8-6.2-5.4c0-3.5,2.3-5.8,6.1-5.8c3.7,0,5.8,2.4,5.8,4.9c0,1-0.3,1.3-1.4,1.3H136.7z M142.3,54.4
				c-0.2-1.4-1.3-2.4-2.7-2.4c-1.6,0-2.6,0.9-2.9,2.4H142.3z"/>
			<path class="st0" d="M147.4,51.4c0-0.9,0.4-1.5,1.4-1.5c1,0,1.4,0.6,1.4,1.5v0.4h0c0.9-1.1,2.1-1.9,3.9-1.9c1.9,0,4,0.9,4,3.9
				v5.8c0,0.8-0.4,1.5-1.6,1.5c-1.2,0-1.6-0.7-1.6-1.5v-5.2c0-1.2-0.6-2.1-2-2.1c-1.1,0-2.4,0.9-2.4,2.4v4.9c0,0.8-0.4,1.5-1.6,1.5
				c-1.2,0-1.6-0.7-1.6-1.5V51.4z"/>
			<path class="st0" d="M166.2,49.9c3.9,0,5.9,2.5,5.9,5.6c0,3-1.6,5.6-5.9,5.6c-4.4,0-5.9-2.6-5.9-5.6
				C160.3,52.4,162.4,49.9,166.2,49.9z M166.2,59c1.9,0,2.7-1.6,2.7-3.4c0-2-0.9-3.4-2.7-3.4c-1.9,0-2.7,1.5-2.7,3.4
				C163.5,57.4,164.3,59,166.2,59z"/>
		</g>
	</g>
	<g>
		<path class="st1" d="M86.2,70c0-0.6,0.3-0.8,0.9-0.8h2.1c1.7,0,2.3,1.1,2.3,3.6v1.1c0,2.4-0.9,3.5-2.4,3.5h-2
			c-0.6,0-0.9-0.2-0.9-0.8V70z M87.9,76.1h0.7c0.8,0,1.3-0.5,1.3-2.6v-0.7c0-1.8-0.2-2.5-1.2-2.5h-0.8V76.1z"/>
		<path class="st1" d="M93.5,69c0.5,0,0.8,0.4,0.8,0.8c0,0.4-0.4,0.8-0.8,0.8c-0.5,0-0.8-0.4-0.8-0.8C92.7,69.3,93,69,93.5,69z
			 M92.8,71.9c0-0.6,0.3-0.8,0.7-0.8c0.4,0,0.7,0.3,0.7,0.8v4.8c0,0.6-0.3,0.8-0.7,0.8c-0.4,0-0.7-0.3-0.7-0.8V71.9z"/>
		<path class="st1" d="M96.4,74.3c-0.8-0.6-1-1-1-1.6c0-1.1,0.8-1.7,2-1.7c1.6,0,2,1,2,1.5c0,0.4-0.2,0.7-0.8,0.7
			c-0.4,0-0.6-0.2-0.6-0.5c0-0.4-0.3-0.6-0.6-0.6c-0.3,0-0.5,0.2-0.5,0.5c0,0.2,0.1,0.4,0.3,0.6l0.9,0.6c0.9,0.6,1.4,1.1,1.4,1.9
			c0,1.2-0.9,1.8-2.1,1.8c-1.6,0-2-1-2-1.7c0-0.5,0.4-0.7,0.7-0.7c0.5,0,0.7,0.3,0.8,0.8c0,0.3,0.2,0.5,0.6,0.5
			c0.4,0,0.6-0.2,0.6-0.6c0-0.3-0.1-0.5-0.5-0.8L96.4,74.3z"/>
		<path class="st1" d="M100.3,73.6c0-1.6,0.2-2.6,2.2-2.6c1.5,0,2.1,0.8,2.1,2.4c0,0.6-0.1,1-0.8,1h-1.9v0.6c0,0.7,0.1,1.3,0.7,1.3
			c0.3,0,0.6-0.3,0.6-0.6c0-0.6,0.3-0.7,0.7-0.7c0.4,0,0.7,0.1,0.7,0.7c0,1.1-0.8,1.8-2,1.8c-2,0-2.2-1-2.2-2.6V73.6z M103.2,73.5
			V73c0-0.5-0.2-0.8-0.6-0.8c-0.5,0-0.6,0.4-0.6,0.8v0.5H103.2z"/>
		<path class="st1" d="M105.7,71.9c0-0.6,0.3-0.8,0.7-0.8c0.4,0,0.7,0.3,0.7,0.8h0c0.2-0.5,0.8-0.8,1.4-0.8c0.8,0,1.4,0.5,1.4,1.5
			v4.1c0,0.6-0.3,0.8-0.7,0.8c-0.4,0-0.7-0.3-0.7-0.8v-3.7c0-0.5-0.3-0.6-0.6-0.6c-0.5,0-0.8,0.3-0.8,1.1v3.3c0,0.6-0.3,0.8-0.7,0.8
			c-0.4,0-0.7-0.3-0.7-0.8V71.9z M107.1,69.2c0.6,0,1.2,0.3,1.4,0.3c0.4,0,0.6-0.4,0.9-0.4c0.3,0,0.5,0.2,0.5,0.4c0,0.5-0.6,1-1.2,1
			c-0.2,0-1.3-0.3-1.5-0.3c-0.3,0-0.5,0.4-0.8,0.4c-0.3,0-0.5-0.2-0.5-0.5C105.9,69.7,106.6,69.2,107.1,69.2z"/>
		<path class="st1" d="M111.1,73.4c0-1.3,0.5-2.4,2.2-2.4c1.8,0,2.2,1.1,2.2,2.4v1.7c0,1.3-0.5,2.4-2.2,2.4c-1.8,0-2.2-1.1-2.2-2.4
			V73.4z M112.6,75c0,1.1,0.2,1.4,0.7,1.4c0.5,0,0.7-0.3,0.7-1.4v-1.5c0-1.1-0.2-1.4-0.7-1.4c-0.4,0-0.7,0.3-0.7,1.4V75z"/>
		<path class="st1" d="M119.6,70.1c0-0.7,0.3-1.1,1.3-1.1c0.8,0,1.2,0.3,1.4,1.2l0.8,3.9h0l0.8-3.9c0.2-0.9,0.6-1.2,1.4-1.2
			c1.1,0,1.3,0.4,1.3,1.1v6.5c0,0.5-0.4,0.8-0.8,0.8s-0.8-0.3-0.8-0.8v-5.9h0l-1.3,6.1c-0.1,0.3-0.2,0.5-0.6,0.5
			c-0.4,0-0.5-0.2-0.6-0.5l-1.3-6.1h0v5.9c0,0.5-0.4,0.8-0.8,0.8s-0.8-0.3-0.8-0.8V70.1z"/>
		<path class="st1" d="M128.1,71.9c0-0.6,0.3-0.8,0.7-0.8c0.4,0,0.7,0.3,0.7,0.8v3.7c0,0.5,0.2,0.6,0.6,0.6c0.5,0,0.8-0.3,0.8-1.1
			v-3.3c0-0.6,0.3-0.8,0.7-0.8c0.4,0,0.7,0.3,0.7,0.8v4.8c0,0.6-0.3,0.8-0.7,0.8c-0.4,0-0.7-0.3-0.7-0.8h0c-0.2,0.5-0.8,0.8-1.4,0.8
			c-0.8,0-1.4-0.5-1.4-1.5V71.9z"/>
		<path class="st1" d="M133.7,69.8c0-0.6,0.3-0.8,0.7-0.8c0.4,0,0.7,0.3,0.7,0.8v6.8c0,0.6-0.3,0.8-0.7,0.8c-0.4,0-0.7-0.3-0.7-0.8
			V69.8z"/>
		<path class="st1" d="M136.7,72.2h-0.2c-0.4,0-0.7-0.1-0.7-0.5c0-0.4,0.2-0.5,0.7-0.5h0.2v-1.1c0-0.6,0.3-0.8,0.7-0.8
			s0.7,0.3,0.7,0.8v1.1h0.3c0.4,0,0.7,0.1,0.7,0.5c0,0.4-0.2,0.5-0.7,0.5h-0.3v3.6c0,0.3,0.1,0.4,0.4,0.4c0.3,0,0.5,0.1,0.5,0.5
			c0,0.5-0.3,0.6-0.9,0.6c-1.1,0-1.5-0.6-1.5-1.1V72.2z"/>
		<path class="st1" d="M140.5,69c0.5,0,0.8,0.4,0.8,0.8c0,0.4-0.4,0.8-0.8,0.8c-0.5,0-0.8-0.4-0.8-0.8C139.6,69.3,140,69,140.5,69z
			 M139.8,71.9c0-0.6,0.3-0.8,0.7-0.8c0.4,0,0.7,0.3,0.7,0.8v4.8c0,0.6-0.3,0.8-0.7,0.8c-0.4,0-0.7-0.3-0.7-0.8V71.9z"/>
		<path class="st1" d="M149.6,76.6c0,0.6-0.3,0.8-0.7,0.8c-0.4,0-0.7-0.3-0.7-0.8v-3.7c0-0.5-0.3-0.6-0.6-0.6
			c-0.5,0-0.8,0.3-0.8,1.1v3.3c0,0.6-0.3,0.8-0.7,0.8c-0.4,0-0.7-0.3-0.7-0.8v-3.7c0-0.5-0.3-0.6-0.6-0.6c-0.5,0-0.8,0.3-0.8,1.1
			v3.3c0,0.6-0.3,0.8-0.7,0.8c-0.4,0-0.7-0.3-0.7-0.8v-4.8c0-0.6,0.3-0.8,0.7-0.8c0.4,0,0.7,0.3,0.7,0.8h0c0.2-0.5,0.8-0.8,1.4-0.8
			c0.7,0,1,0.2,1.3,0.7c0.4-0.5,0.8-0.7,1.5-0.7c0.8,0,1.4,0.5,1.4,1.5V76.6z"/>
		<path class="st1" d="M150.7,73.6c0-1.6,0.2-2.6,2.2-2.6c1.5,0,2.1,0.8,2.1,2.4c0,0.6-0.1,1-0.8,1h-1.9v0.6c0,0.7,0.1,1.3,0.7,1.3
			c0.3,0,0.6-0.3,0.6-0.6c0-0.6,0.3-0.7,0.7-0.7c0.4,0,0.7,0.1,0.7,0.7c0,1.1-0.8,1.8-2,1.8c-2,0-2.2-1-2.2-2.6V73.6z M153.5,73.5
			V73c0-0.5-0.2-0.8-0.6-0.8c-0.5,0-0.6,0.4-0.6,0.8v0.5H153.5z"/>
		<path class="st1" d="M155.9,73.4c0-1.3,0.2-2.4,1.6-2.4c0.5,0,1,0.2,1.3,0.7h0v-1.9c0-0.6,0.3-0.8,0.7-0.8c0.4,0,0.7,0.3,0.7,0.8
			v6.8c0,0.6-0.3,0.8-0.7,0.8c-0.4,0-0.7-0.3-0.7-0.7h0c-0.3,0.5-0.7,0.7-1.3,0.7c-1.3,0-1.6-1.1-1.6-2.4V73.4z M157.4,74.7
			c0,1,0.1,1.6,0.6,1.6c0.6,0,0.7-0.6,0.7-1.5v-1.2c0-1.2-0.4-1.5-0.7-1.5c-0.5,0-0.6,0.4-0.6,1.7V74.7z"/>
		<path class="st1" d="M162.4,69c0.5,0,0.8,0.4,0.8,0.8c0,0.4-0.4,0.8-0.8,0.8c-0.5,0-0.8-0.4-0.8-0.8C161.6,69.3,162,69,162.4,69z
			 M161.7,71.9c0-0.6,0.3-0.8,0.7-0.8c0.4,0,0.7,0.3,0.7,0.8v4.8c0,0.6-0.3,0.8-0.7,0.8c-0.4,0-0.7-0.3-0.7-0.8V71.9z"/>
		<path class="st1" d="M168.7,76c0,0.4,0.1,0.7,0.1,0.9c0,0.4-0.3,0.5-0.7,0.5c-0.4,0-0.8-0.2-0.8-0.8l0,0c-0.3,0.6-0.8,0.8-1.3,0.8
			c-0.9,0-1.5-0.5-1.5-1.6c0-0.9,0.3-1.5,1.1-1.8l1.3-0.6c0.3-0.2,0.5-0.4,0.5-0.6c0-0.3-0.2-0.6-0.6-0.6c-0.5,0-0.7,0.2-0.7,0.7
			c0,0.3-0.3,0.4-0.7,0.4c-0.3,0-0.8-0.1-0.8-0.6c0-1.1,0.9-1.6,2.1-1.6c2,0,2.2,0.8,2.2,1.8V76z M167.2,74.1l-0.5,0.3
			c-0.7,0.4-0.8,0.6-0.8,1.2c0,0.5,0.2,0.7,0.5,0.7c0.5,0,0.8-0.5,0.8-1.1V74.1z"/>
		<path class="st1" d="M170,69.8c0-0.6,0.3-0.8,0.7-0.8c0.4,0,0.7,0.3,0.7,0.8v6.8c0,0.6-0.3,0.8-0.7,0.8c-0.4,0-0.7-0.3-0.7-0.8
			V69.8z"/>
	</g>
</g>
<g>
	<g>
		<g>
			
				<radialGradient id="SVGID_1_" cx="-302.5902" cy="228.5745" r="48.4437" gradientTransform="matrix(0.658 -0.4793 0.2137 0.369 213.1528 -183.5748)" gradientUnits="userSpaceOnUse">
				<stop  offset="0" style="stop-color:#FCFEFF"/>
				<stop  offset="9.024870e-02" style="stop-color:#FDFEFF;stop-opacity:0.9098"/>
				<stop  offset="1" style="stop-color:#FFFFFF;stop-opacity:0"/>
			</radialGradient>
			<rect x="27.9" class="st2" width="69.9" height="91.6"/>
			<rect class="st3" width="62.9" height="91.6"/>
		</g>
	</g>
	<g>
		<g>
			<linearGradient id="SVGID_2_" gradientUnits="userSpaceOnUse" x1="47.1359" y1="67.4487" x2="76.3591" y2="67.4487">
				<stop  offset="0" style="stop-color:#8DCECB"/>
				<stop  offset="0.1903" style="stop-color:#88C9C7"/>
				<stop  offset="0.3917" style="stop-color:#78B9BB"/>
				<stop  offset="0.5984" style="stop-color:#5DA1A8"/>
				<stop  offset="0.8072" style="stop-color:#39838F"/>
				<stop  offset="1" style="stop-color:#066474"/>
			</linearGradient>
			<path class="st4" d="M47.1,89.1c0,0,28.5-6.9,16.2-43.3c6.4,5,12,12.3,12.9,19.4c0.8,7-3.4,11.9-6.4,14.7
				C64.1,85.1,54.7,89.3,47.1,89.1z"/>
			<linearGradient id="SVGID_3_" gradientUnits="userSpaceOnUse" x1="22.4471" y1="35.1068" x2="74.3706" y2="35.1068">
				<stop  offset="0" style="stop-color:#066474"/>
				<stop  offset="3.661275e-02" style="stop-color:#357276"/>
				<stop  offset="0.1114" style="stop-color:#6A8C74"/>
				<stop  offset="0.1894" style="stop-color:#93A56C"/>
				<stop  offset="0.2698" style="stop-color:#B4BB62"/>
				<stop  offset="0.3532" style="stop-color:#CFCD56"/>
				<stop  offset="0.4409" style="stop-color:#E1DB49"/>
				<stop  offset="0.5358" style="stop-color:#ECE340"/>
				<stop  offset="0.651" style="stop-color:#F0E63D"/>
				<stop  offset="0.7203" style="stop-color:#F0E641"/>
				<stop  offset="0.7701" style="stop-color:#F1E74E"/>
				<stop  offset="0.8138" style="stop-color:#F2E961"/>
				<stop  offset="0.854" style="stop-color:#F4EC7A"/>
				<stop  offset="0.8918" style="stop-color:#F6EF97"/>
				<stop  offset="0.9278" style="stop-color:#F8F3B6"/>
				<stop  offset="0.9624" style="stop-color:#FCF9D8"/>
				<stop  offset="0.9951" style="stop-color:#FFFEFA"/>
				<stop  offset="1" style="stop-color:#FFFFFF"/>
			</linearGradient>
			<path class="st5" d="M61.3,39.4l13.1-26.5c0,0-45.7,11.4-51.9,44.3C31.2,49.1,44.1,39.5,61.3,39.4z"/>
			<linearGradient id="SVGID_4_" gradientUnits="userSpaceOnUse" x1="57.7968" y1="70.2722" x2="57.7968" y2="45.8069">
				<stop  offset="0" style="stop-color:#EF877B"/>
				<stop  offset="0.2263" style="stop-color:#EF8A7E"/>
				<stop  offset="0.3893" style="stop-color:#F09285"/>
				<stop  offset="0.5324" style="stop-color:#F2A093"/>
				<stop  offset="0.6641" style="stop-color:#F5B3A7"/>
				<stop  offset="0.7879" style="stop-color:#F8CBC1"/>
				<stop  offset="0.9042" style="stop-color:#FCE6E0"/>
				<stop  offset="1" style="stop-color:#FFFFFF"/>
			</linearGradient>
			<path class="st6" d="M39.2,60.4c0,0,13.1-13.9,24.1-14.6c9.4,7.4,14.6,17,12.6,24.5C69.7,65.1,57.3,60,39.2,60.4z"/>
			<linearGradient id="SVGID_5_" gradientUnits="userSpaceOnUse" x1="21.9512" y1="64.5655" x2="72.7051" y2="64.5655">
				<stop  offset="0" style="stop-color:#066474"/>
				<stop  offset="3.947675e-02" style="stop-color:#27687B"/>
				<stop  offset="0.1797" style="stop-color:#5A728F"/>
				<stop  offset="0.3254" style="stop-color:#7E799E"/>
				<stop  offset="0.4758" style="stop-color:#977DAA"/>
				<stop  offset="0.633" style="stop-color:#A880B2"/>
				<stop  offset="0.8013" style="stop-color:#B381B6"/>
				<stop  offset="1" style="stop-color:#B682B8"/>
			</linearGradient>
			<path class="st7" d="M72.7,76.7c0,0-45.3,15-42.5-36.7c0,0-19.5,24.1,1.3,42.7c11.8,10.6,25.4,5.7,33.2,0.9
				C69.8,80.5,72.7,76.7,72.7,76.7z"/>
		</g>
		<g>
			<linearGradient id="SVGID_6_" gradientUnits="userSpaceOnUse" x1="47.1359" y1="67.4487" x2="76.3591" y2="67.4487">
				<stop  offset="0" style="stop-color:#8DCECB"/>
				<stop  offset="0.1903" style="stop-color:#88C9C7"/>
				<stop  offset="0.3917" style="stop-color:#78B9BB"/>
				<stop  offset="0.5984" style="stop-color:#5DA1A8"/>
				<stop  offset="0.8072" style="stop-color:#39838F"/>
				<stop  offset="1" style="stop-color:#066474"/>
			</linearGradient>
			<path class="st8" d="M47.1,89.1c0,0,28.5-6.9,16.2-43.3c6.4,5,12,12.3,12.9,19.4c0.8,7-3.4,11.9-6.4,14.7
				C64.1,85.1,54.7,89.3,47.1,89.1z"/>
			<linearGradient id="SVGID_7_" gradientUnits="userSpaceOnUse" x1="22.4471" y1="35.1068" x2="74.3706" y2="35.1068">
				<stop  offset="0" style="stop-color:#066474"/>
				<stop  offset="3.466378e-02" style="stop-color:#357276"/>
				<stop  offset="0.1055" style="stop-color:#6A8C74"/>
				<stop  offset="0.1794" style="stop-color:#93A56C"/>
				<stop  offset="0.2555" style="stop-color:#B4BB62"/>
				<stop  offset="0.3344" style="stop-color:#CFCD56"/>
				<stop  offset="0.4175" style="stop-color:#E1DB49"/>
				<stop  offset="0.5073" style="stop-color:#ECE340"/>
				<stop  offset="0.6163" style="stop-color:#F0E63D"/>
				<stop  offset="0.7372" style="stop-color:#F5ED87"/>
				<stop  offset="1" style="stop-color:#FFFFFF"/>
			</linearGradient>
			<path class="st9" d="M61.3,39.4l13.1-26.5c0,0-45.7,11.4-51.9,44.3C31.2,49.1,44.1,39.5,61.3,39.4z"/>
			<linearGradient id="SVGID_8_" gradientUnits="userSpaceOnUse" x1="57.7968" y1="70.2722" x2="57.7968" y2="45.8069">
				<stop  offset="0" style="stop-color:#EF877B"/>
				<stop  offset="0.2263" style="stop-color:#EF8A7E"/>
				<stop  offset="0.3893" style="stop-color:#F09285"/>
				<stop  offset="0.5324" style="stop-color:#F2A093"/>
				<stop  offset="0.6641" style="stop-color:#F5B3A7"/>
				<stop  offset="0.7879" style="stop-color:#F8CBC1"/>
				<stop  offset="0.9042" style="stop-color:#FCE6E0"/>
				<stop  offset="1" style="stop-color:#FFFFFF"/>
			</linearGradient>
			<path class="st10" d="M39.2,60.4c0,0,13.1-13.9,24.1-14.6c9.4,7.4,14.6,17,12.6,24.5C69.7,65.1,57.3,60,39.2,60.4z"/>
			<linearGradient id="SVGID_9_" gradientUnits="userSpaceOnUse" x1="21.9512" y1="64.5655" x2="72.7051" y2="64.5655">
				<stop  offset="0" style="stop-color:#066474"/>
				<stop  offset="3.947675e-02" style="stop-color:#27687B"/>
				<stop  offset="0.1797" style="stop-color:#5A728F"/>
				<stop  offset="0.3254" style="stop-color:#7E799E"/>
				<stop  offset="0.4758" style="stop-color:#977DAA"/>
				<stop  offset="0.633" style="stop-color:#A880B2"/>
				<stop  offset="0.8013" style="stop-color:#B381B6"/>
				<stop  offset="1" style="stop-color:#B682B8"/>
			</linearGradient>
			<path class="st11" d="M72.7,76.7c0,0-45.3,15-42.5-36.7c0,0-19.5,24.1,1.3,42.7c11.8,10.6,25.4,5.7,33.2,0.9
				C69.8,80.5,72.7,76.7,72.7,76.7z"/>
		</g>
	</g>
</g>
</svg>
